<?xml version="1.0" encoding="UTF-8" standalone="no"?>
<!-- Created with Inkscape (http://www.inkscape.org/) -->

<svg
   xmlns:dc="http://purl.org/dc/elements/1.1/"
   xmlns:cc="http://creativecommons.org/ns#"
   xmlns:rdf="http://www.w3.org/1999/02/22-rdf-syntax-ns#"
   xmlns:svg="http://www.w3.org/2000/svg"
   xmlns="http://www.w3.org/2000/svg"
   xmlns:sodipodi="http://sodipodi.sourceforge.net/DTD/sodipodi-0.dtd"
   xmlns:inkscape="http://www.inkscape.org/namespaces/inkscape"
   width="3000"
   height="2987.762"
   viewBox="0 0 3000 2987.762"
   id="svg2"
   version="1.1"
   inkscape:version="0.91 r13725"
   sodipodi:docname="ASCH.svg">
  <title
     id="title4483">Asociación Chilena de Seguridad - ASCH</title>
  <defs
     id="defs4">
    <clipPath
       id="clipPath4272"
       clipPathUnits="userSpaceOnUse">
      <path
         inkscape:connector-curvature="0"
         id="path4274"
         d="m 1777.7492,2009.3216 437.1947,0 0,-283.2095 -437.1947,0 0,283.2095 z" />
    </clipPath>
  </defs>
  <sodipodi:namedview
     id="base"
     pagecolor="#ffffff"
     bordercolor="#666666"
     borderopacity="1.0"
     inkscape:pageopacity="0.0"
     inkscape:pageshadow="2"
     inkscape:zoom="0.18341488"
     inkscape:cx="1500"
     inkscape:cy="1493.881"
     inkscape:document-units="px"
     inkscape:current-layer="layer1"
     showgrid="false"
     units="px"
     inkscape:showpageshadow="false"
     fit-margin-top="0"
     fit-margin-left="0"
     fit-margin-right="0"
     fit-margin-bottom="0"
     inkscape:window-width="1366"
     inkscape:window-height="715"
     inkscape:window-x="-8"
     inkscape:window-y="-8"
     inkscape:window-maximized="1" />
  <metadata
     id="metadata7">
    <rdf:RDF>
      <cc:Work
         rdf:about="">
        <dc:format>image/svg+xml</dc:format>
        <dc:type
           rdf:resource="http://purl.org/dc/dcmitype/StillImage" />
        <dc:title>Asociación Chilena de Seguridad - ASCH</dc:title>
      </cc:Work>
    </rdf:RDF>
  </metadata>
  <g
     inkscape:label="Capa 1"
     inkscape:groupmode="layer"
     id="layer1"
     transform="translate(351.60041,3038.7272)">
    <g
       id="g4479"
       transform="matrix(28.053704,0,0,28.053704,9512.0923,1378.7995)">
      <path
         d="m -351.41912,-157.28554 106.57525,0 0,106.139013 -106.57525,0 0,-106.139013 z"
         style="fill:#007f46;fill-opacity:1;fill-rule:nonzero;stroke:#007f46;stroke-width:0.36249998;stroke-linecap:butt;stroke-linejoin:miter;stroke-miterlimit:3.86369991;stroke-dasharray:none;stroke-opacity:1"
         id="path4256"
         inkscape:connector-curvature="0" />
      <path
         sodipodi:nodetypes="ccsccccccsccccccccccccccccccccccccccccccccccscsccscccccsccsccccccsccs"
         inkscape:connector-curvature="0"
         d="m -328.19761,-81.311037 c 0,-1.16812 -0.26913,-2.11225 -0.89851,-2.83025 -0.53887,-0.71912 -1.30212,-1.07862 -2.29062,-1.07862 -0.98863,0 -1.75225,0.31488 -2.33638,1.03325 -0.5385,0.674 -0.80862,1.61762 -0.85337,2.87562 l -1.2e-4,7.28375 6.44931,0.01126 z m -11.1852,-7.862791 c -2.02238,2.0665 -3.00977,4.808036 -3.00977,8.222656 l 0,20.66211 7.81641,0 -0.002,-6.638672 6.39062,-0.002 -0.01,6.640626 7.86133,0 0,-20.66211 c -0.0454,-3.41462 -1.03464,-6.156156 -3.05664,-8.222656 -2.06625,-2.11113 -4.71489,-3.144531 -8.01669,-3.121758 -3.3018,0.02277 -5.95176,1.055174 -7.97326,3.121804 z m 43.02929,-2.640625 0.0156,31.513672 7.74805,0.01172 0,-11.939454 6.19922,0 0,11.939454 7.86132,0 0,-31.490235 -7.86132,0 0,12.001953 -6.19922,0 0,-12.001953 -7.76368,-0.03516 z m -2.5371,0.02344 -5.17579,0.01367 c -4.22313,0 -7.68225,1.527661 -10.42187,4.582032 -2.7855,3.0555 -4.13477,6.782916 -4.13477,11.185546 0.0446,4.40225 1.39427,8.085625 4.13477,11.140625 2.82963,3.05462 6.28911,4.582032 10.42187,4.582032 l 5.28907,-0.06445 -0.0371,-7.501954 -3.81641,0.01367 c -2.33624,-0.04462 -4.22203,-0.718906 -5.66016,-2.066406 -1.43762,-1.43751 -2.15625,-3.458625 -2.15625,-6.109375 0,-2.74013 0.71863,-4.761875 2.15625,-6.109375 1.43813,-1.4375 3.32392,-2.111328 5.66016,-2.111328 l 3.74024,0 z m 35.8457,0.01367 c -2.78537,0 -5.03163,0.716917 -6.82813,2.154297 -1.797,1.438 -2.69531,3.685104 -2.69531,6.740235 0.0445,2.24625 0.67376,3.951104 1.93164,5.208984 1.34738,1.30313 3.18936,2.787192 5.61524,4.539062 2.51562,1.79713 3.72851,3.055282 3.72851,3.863282 -0.0449,1.168 -0.98829,1.707031 -2.91992,1.707031 l -8.13086,0 0,7.275391 8.40039,0 c 4.49238,0 7.45666,-0.897943 8.89453,-2.695313 1.48213,-1.79675 2.20117,-4.040828 2.20117,-6.736328 -0.045,-2.20088 -0.7638,-3.954656 -2.20117,-5.347656 -1.48237,-1.43738 -3.41409,-2.964282 -5.83984,-4.582032 -2.47088,-1.70687 -3.6836,-2.873375 -3.6836,-3.546875 0.0451,-0.49463 0.17964,-0.810734 0.49415,-0.990234 0.35925,-0.22413 0.76385,-0.3125 1.30273,-0.3125 l 7.90625,0 0,-7.277344 z"
         style="fill:#ffffff;fill-opacity:1;fill-rule:evenodd;stroke:none"
         id="path4264" />
    </g>
  </g>
</svg>
